<?xml version="1.0" encoding="UTF-8" standalone="no"?>
<!DOCTYPE svg PUBLIC "-//W3C//DTD SVG 1.1//EN" "http://www.w3.org/Graphics/SVG/1.1/DTD/svg11.dtd">
<svg xmlns="http://www.w3.org/2000/svg" version="1.1" viewBox="0.00 0.00 315.00 509.00">
<path fill="#000000" d="
  M 213.97 263.11
  A 0.29 0.28 -17.5 0 1 213.55 262.89
  Q 210.26 233.20 197.36 205.83
  C 195.36 201.61 194.74 198.44 192.65 194.54
  Q 183.55 177.52 175.18 165.03
  Q 168.17 154.60 153.45 135.73
  C 133.25 109.81 128.31 73.72 147.48 45.77
  C 160.70 26.48 180.69 16.16 203.99 13.75
  C 264.38 7.50 299.02 65.40 290.28 119.39
  C 285.98 145.89 273.88 172.20 260.17 195.66
  C 258.76 198.07 257.64 201.46 256.01 204.12
  Q 237.17 234.83 214.41 262.86
  A 0.09 0.03 -16.9 0 1 214.38 262.88
  L 213.97 263.11
  Z
  M 257.92 139.04
  A 1.95 1.94 22.5 0 0 259.86 138.24
  Q 267.00 127.98 269.76 116.32
  Q 271.78 107.70 271.45 105.20
  Q 271.41 104.93 271.50 97.60
  Q 271.56 93.12 271.07 90.09
  Q 267.03 64.72 248.16 47.56
  Q 242.52 42.44 237.14 45.09
  C 232.50 47.39 230.83 52.44 232.77 57.10
  C 233.81 59.63 238.08 62.15 241.54 64.84
  C 264.20 82.52 268.87 111.61 257.17 137.72
  A 0.94 0.94 0.0 0 0 257.86 139.03
  L 257.92 139.04
  Z"
/>
<path fill="#0076fe" d="
  M 101.68 128.55
  A 0.29 0.29 0.0 0 1 102.11 128.77
  Q 105.42 158.72 118.42 186.33
  C 120.43 190.58 121.06 193.78 123.16 197.72
  Q 132.34 214.89 140.78 227.49
  Q 147.84 238.01 162.68 257.05
  C 183.05 283.20 188.02 319.60 168.67 347.79
  C 155.33 367.24 135.17 377.64 111.67 380.06
  C 50.75 386.35 15.83 327.94 24.67 273.48
  C 29.01 246.75 41.23 220.22 55.06 196.56
  C 56.48 194.13 57.62 190.71 59.26 188.03
  Q 78.27 157.06 101.24 128.80
  A 0.09 0.03 -16.8 0 1 101.27 128.78
  L 101.68 128.55
  Z
  M 57.31 253.69
  A 1.97 1.96 22.5 0 0 55.34 254.50
  Q 48.14 264.88 45.36 276.67
  Q 43.32 285.39 43.66 287.91
  Q 43.70 288.18 43.61 295.59
  Q 43.56 300.12 44.05 303.19
  Q 48.16 328.83 67.25 346.16
  Q 72.95 351.33 78.39 348.64
  C 83.08 346.32 84.76 341.21 82.80 336.50
  C 81.74 333.94 77.42 331.40 73.92 328.68
  C 51.00 310.83 46.26 281.43 58.06 255.03
  A 0.96 0.95 -72.6 0 0 57.37 253.70
  L 57.31 253.69
  Z"
/>
<path fill="#000000" d="
  M 24.81 435.40
  A 0.20 0.20 0.0 0 0 25.18 435.51
  Q 29.42 429.03 36.95 428.19
  C 54.45 426.23 60.94 442.45 58.30 457.07
  C 56.47 467.14 49.60 474.14 38.94 473.88
  C 33.11 473.73 28.16 471.24 25.13 466.27
  A 0.30 0.29 -64.0 0 0 24.59 466.46
  Q 24.92 469.49 24.36 471.47
  A 3.29 3.27 3.8 0 1 21.66 473.82
  C 17.29 474.45 16.54 471.78 16.54 467.82
  Q 16.60 440.18 16.53 412.68
  A 4.08 4.07 89.9 0 1 20.60 408.59
  L 21.02 408.59
  A 3.79 3.78 -0.0 0 1 24.81 412.37
  L 24.81 435.40
  Z
  M 24.69 450.93
  C 24.69 459.10 27.99 467.34 37.62 467.34
  C 47.25 467.34 50.54 459.10 50.54 450.93
  C 50.54 442.77 47.25 434.53 37.62 434.53
  C 27.99 434.53 24.69 442.76 24.69 450.93
  Z"
/>
<path fill="#0076fe" d="
  M 234.26 466.84
  A 1.88 1.87 85.1 0 1 236.31 468.57
  Q 236.68 473.78 232.35 473.99
  C 221.58 474.51 216.00 469.14 216.01 458.25
  Q 216.02 441.14 215.97 412.74
  A 4.14 4.14 0.0 0 1 220.07 408.60
  L 220.25 408.60
  A 4.05 4.04 -0.1 0 1 224.34 412.66
  Q 224.15 447.71 224.39 459.55
  C 224.52 465.59 228.86 467.38 234.26 466.84
  Z"
/>
<rect fill="#0076fe" x="-5.17" y="-4.76" transform="translate(247.13,413.78) rotate(0.9)" width="10.34" height="9.52" rx="4.34"/>
<path fill="#000000" d="
  M 172.07 435.84
  A 0.49 0.49 0.0 0 0 171.58 435.35
  L 165.93 435.35
  A 2.96 2.96 0.0 0 1 162.97 432.28
  L 162.98 432.00
  A 2.87 2.87 0.0 0 1 165.84 429.03
  L 171.40 429.00
  A 0.65 0.65 0.0 0 0 172.05 428.35
  L 172.05 418.93
  A 3.90 3.90 0.0 0 1 175.95 415.03
  L 176.47 415.03
  A 3.80 3.80 0.0 0 1 180.27 418.83
  L 180.27 428.36
  A 0.64 0.64 0.0 0 0 180.91 429.00
  L 191.52 429.01
  A 3.10 3.10 0.0 0 1 194.62 432.10
  L 194.62 432.27
  A 3.06 3.05 89.9 0 1 191.57 435.34
  L 180.87 435.36
  A 0.61 0.60 -88.5 0 0 180.27 435.94
  C 180.14 438.92 180.47 447.13 180.27 456.55
  C 180.09 464.97 184.75 468.42 192.98 466.50
  A 2.60 2.60 0.0 0 1 196.17 469.03
  L 196.17 469.61
  A 3.88 3.88 0.0 0 1 192.97 473.43
  Q 183.16 475.17 177.60 471.13
  C 173.05 467.82 172.05 462.42 172.05 456.39
  Q 172.04 443.97 172.07 435.84
  Z"
/>
<path fill="#000000" d="
  M 108.8946 454.4539
  A 19.13 19.13 0.0 0 1 89.8986 473.7169
  L 86.3187 473.7419
  A 19.13 19.13 0.0 0 1 67.0556 454.7460
  L 67.0054 447.5461
  A 19.13 19.13 0.0 0 1 86.0014 428.2831
  L 89.5813 428.2581
  A 19.13 19.13 0.0 0 1 108.8444 447.2540
  L 108.8946 454.4539
  Z
  M 75.02 451.03
  C 75.03 459.21 78.35 467.44 87.99 467.42
  C 97.64 467.40 100.92 459.15 100.90 450.97
  C 100.88 442.79 97.56 434.56 87.92 434.58
  C 78.28 434.60 75.00 442.85 75.02 451.03
  Z"
/>
<path fill="#000000" d="
  M 159.4045 454.4337
  A 19.15 19.15 0.0 0 1 140.3886 473.7169
  L 136.8087 473.7419
  A 19.15 19.15 0.0 0 1 117.5255 454.7261
  L 117.4755 447.5663
  A 19.15 19.15 0.0 0 1 136.4914 428.2831
  L 140.0713 428.2581
  A 19.15 19.15 0.0 0 1 159.3545 447.2739
  L 159.4045 454.4337
  Z
  M 125.51 451.03
  C 125.53 459.21 128.85 467.44 138.49 467.42
  C 148.14 467.39 151.42 459.14 151.39 450.96
  C 151.37 442.78 148.05 434.55 138.41 434.57
  C 128.77 434.60 125.49 442.85 125.51 451.03
  Z"
/>
<rect fill="#0076fe" x="243.01" y="428.00" width="8.24" height="45.08" rx="3.93"/>
<path fill="#0076fe" d="
  M 281.64 444.64
  Q 281.89 444.64 281.98 444.53
  Q 287.12 437.89 293.05 430.43
  A 4.51 4.50 -57.3 0 1 298.62 429.21
  L 298.84 429.31
  A 2.98 2.98 0.0 0 1 299.87 433.86
  L 286.76 450.18
  A 0.80 0.79 -45.4 0 0 286.76 451.17
  L 300.80 468.75
  A 3.03 3.03 0.0 0 1 299.75 473.37
  L 299.56 473.45
  A 4.56 4.56 0.0 0 1 293.97 472.25
  Q 293.77 472.00 282.09 457.17
  Q 282.06 457.13 281.87 457.07
  Q 281.76 457.03 281.64 457.03
  Q 281.52 457.03 281.40 457.07
  Q 281.21 457.13 281.18 457.17
  Q 269.49 471.99 269.29 472.24
  A 4.56 4.56 0.0 0 1 263.70 473.43
  L 263.51 473.35
  A 3.03 3.03 0.0 0 1 262.46 468.73
  L 276.52 451.16
  A 0.80 0.79 45.4 0 0 276.52 450.17
  L 263.43 433.84
  A 2.98 2.98 0.0 0 1 264.47 429.29
  L 264.69 429.19
  A 4.51 4.50 57.4 0 1 270.25 430.42
  Q 276.18 437.88 281.31 444.53
  Q 281.40 444.64 281.64 444.64
  Z"
/>
</svg>
